# xmcd
#
# Track frame offsets:
# 150
# 12153
# 24599
# 35391
# 46338
# 56088
# 69331
# 82175
# 93187
# 104270
#
# Disc length: 1522 seconds
#
#
# Revision: 0
# Processed by: cddbd v1.4PL0 Copyright (c) Steve Scherf et al.
# Submitted via: FreeRIP 2.00 
#
DISCID=7705f00a
DTITLE=Moe Bandy - She's Not Really Cheatin' (She's Just Gettin' Even
DYEAR=1982
DGENRE=Country
TTITLE0=She's Not Really Cheatin' (She's Just Gettin' Even)
TTITLE1=He's Taking My Place At Your Place
TTITLE2=Can I Pick You Up
TTITLE3=Hank And Lefty Raised My Country Soul
TTITLE4=The All American Dream
TTITLE5=Only If There Is Another You
TTITLE6=Our Love Could Burn Atlanta Down Again
TTITLE7=Your Memory Is Showing All Over Me
TTITLE8=An Angel Like You
TTITLE9=Jesus In A Nashville Jail
EXTD=Columbia 38009
EXTT0=
EXTT1=
EXTT2=
EXTT3=
EXTT4=
EXTT5=
EXTT6=
EXTT7=
EXTT8=
EXTT9=
PLAYORDER=
